<svg xmlns="http://www.w3.org/2000/svg" viewBox="0 0 5.821 5.821" height="22" width="22"><rect fill="#555" width="5.821" height="5.821" y="-.001" rx=".265" ry=".265"/><path fill="#ff8000" d="M1.72 2.346l-.172.317q-.034.063-.051.112-.016.048-.016.086 0 .065.048.096.049.03.15.03h.07l-.039.187H.794l.038-.188h.074q.048 0 .084-.01.038-.012.072-.043.035-.031.071-.084.038-.054.086-.136L2.416.656H2.9l.296 2.077q.009.055.022.102.016.046.04.08t.06.053q.038.019.093.019h.064l-.038.187H2.272l.038-.187h.08q.114 0 .181-.035.068-.036.068-.114 0-.029-.002-.056l-.005-.055-.054-.381zm.77-.808q-.008-.078-.017-.145l-.014-.133-.01-.124-.005-.124q-.026.064-.052.12l-.055.11-.065.118-.081.145-.35.625h.713zM4.728 5.29L4.6 4.871h-.642l-.128.42h-.403l.622-1.77h.457l.625 1.77zm-.217-.732l-.2-.645q-.022-.075-.031-.119-.04.155-.228.764z"/><path stroke-linecap="square" stroke-width=".529" stroke="#ddd" fill="none" d="M1.323 3.703c0 1.059 1.323.764 1.323.764"/><path fill="#ddd" d="M2.381 3.703v1.588l1.059-.794z"/></svg>