<svg xmlns="http://www.w3.org/2000/svg" width="22" height="22" viewBox="0 0 5.821 5.821"><path d="M2.117 1.323h2.91M2.117 2.91h2.91m-2.91 1.588h2.91" fill="none" stroke="#aaa" stroke-width=".529"/><path d="M1.523 1.851h-.266v-.729l.002-.12.004-.13q-.066.066-.092.087l-.144.116-.129-.16.406-.323h.219zm.222 1.588h-.88v-.185l.316-.32q.14-.144.183-.199.043-.056.062-.103.02-.047.02-.098 0-.076-.043-.113-.041-.037-.111-.037-.073 0-.142.033-.07.034-.144.096L.86 2.342q.093-.08.154-.112.062-.033.134-.05.072-.018.162-.018.118 0 .208.043t.14.12q.05.078.05.178 0 .087-.03.163-.03.076-.095.156-.064.08-.226.229l-.162.152v.012h.549zm-.049.609q0 .118-.072.201-.071.083-.2.114v.005q.152.019.23.093.079.073.079.198 0 .182-.132.283-.132.101-.376.101-.205 0-.364-.068v-.226q.073.037.161.06.088.023.174.023.132 0 .195-.045t.063-.144q0-.088-.073-.125-.072-.037-.23-.037h-.096v-.205h.097q.147 0 .214-.037.068-.04.068-.132 0-.143-.18-.143-.061 0-.126.02-.064.021-.142.072l-.123-.183q.172-.124.41-.124.196 0 .31.079.113.079.113.22z" fill="#66a8c7"/></svg>