<svg xmlns="http://www.w3.org/2000/svg" width="22" height="22" viewBox="0 0 5.821 5.821"><path d="M3.092 2.509q0-.27.083-.521.082-.253.26-.468.182-.215.467-.384.29-.174.703-.285v.438q-.182.066-.322.132-.141.066-.236.145-.091.074-.14.17-.046.09-.046.214 0 .083.045.133.046.05.116.095l.149.095q.079.045.149.12.07.07.116.182.045.111.045.28 0 .286-.178.435-.173.149-.434.149-.36 0-.57-.248-.207-.248-.207-.682zm-1.77 0q0-.27.083-.521.083-.253.26-.468.182-.215.468-.384.29-.174.703-.285v.438q-.186.066-.327.132-.136.066-.232.145-.09.074-.14.17-.046.09-.046.214 0 .083.046.133.045.05.116.095l.148.095q.079.045.15.12.07.07.115.182.046.111.046.28 0 .286-.178.435-.174.149-.434.149-.36 0-.57-.248-.208-.248-.208-.682z" fill="#66a8c7"/></svg>