<?xml version="1.0" encoding="UTF-8"?><svg xmlns="http://www.w3.org/2000/svg" xmlns:xlink="http://www.w3.org/1999/xlink" fill-opacity="1" color-rendering="auto" color-interpolation="auto" text-rendering="auto" stroke="black" stroke-linecap="square" width="476" stroke-miterlimit="10" shape-rendering="auto" stroke-opacity="1" fill="black" stroke-dasharray="none" font-weight="normal" stroke-width="1" height="493" font-family="'Dialog'" font-style="normal" stroke-linejoin="miter" font-size="12px" stroke-dashoffset="0" image-rendering="auto">
  <!--Generated by ySVG 2.5-->
  <defs id="genericDefs"/>
  <g>
    <defs id="defs1">
      <clipPath clipPathUnits="userSpaceOnUse" id="clipPath1">
        <path d="M0 0 L476 0 L476 493 L0 493 L0 0 Z"/>
      </clipPath>
      <clipPath clipPathUnits="userSpaceOnUse" id="clipPath2">
        <path d="M68 -1311 L544 -1311 L544 -818 L68 -818 L68 -1311 Z"/>
      </clipPath>
      <clipPath clipPathUnits="userSpaceOnUse" id="clipPath3">
        <path d="M121.0518 -18 L121.0518 458 L-371.9482 458 L-371.9482 -18 L121.0518 -18 Z"/>
      </clipPath>
      <clipPath clipPathUnits="userSpaceOnUse" id="clipPath4">
        <path d="M229.3633 -18 L229.3633 458 L-263.6367 458 L-263.6367 -18 L229.3633 -18 Z"/>
      </clipPath>
      <clipPath clipPathUnits="userSpaceOnUse" id="clipPath5">
        <path d="M335.5635 -18 L335.5635 458 L-157.4365 458 L-157.4365 -18 L335.5635 -18 Z"/>
      </clipPath>
      <clipPath clipPathUnits="userSpaceOnUse" id="clipPath6">
        <path d="M443.1562 -18 L443.1562 458 L-49.8438 458 L-49.8438 -18 L443.1562 -18 Z"/>
      </clipPath>
    </defs>
    <g fill="rgb(236,245,255)" text-rendering="geometricPrecision" shape-rendering="geometricPrecision" transform="matrix(1,0,0,1,-68,1311)" stroke="rgb(236,245,255)">
      <path d="M83 -1296 L83 -1266 L529 -1266 L529 -1296 Z" stroke="none" clip-path="url(#clipPath2)"/>
      <rect x="83" width="446" height="432.5" y="-1266" clip-path="url(#clipPath2)" stroke="none"/>
      <line clip-path="url(#clipPath2)" fill="rgb(113,146,178)" x1="107" x2="529" y1="-1266" y2="-1266" stroke="none"/>
      <rect x="83" y="-1266" clip-path="url(#clipPath2)" fill="rgb(196,215,237)" width="24" height="110" stroke="none"/>
      <rect x="107" y="-1266" clip-path="url(#clipPath2)" fill="rgb(196,215,237)" width="422" height="110" stroke="none"/>
      <rect x="83" y="-1156" clip-path="url(#clipPath2)" fill="rgb(171,200,226)" width="24" height="108" stroke="none"/>
      <rect x="107" y="-1156" clip-path="url(#clipPath2)" fill="rgb(171,200,226)" width="422" height="108" stroke="none"/>
      <rect x="83" y="-1048" clip-path="url(#clipPath2)" fill="rgb(196,215,237)" width="24" height="103" stroke="none"/>
      <rect x="107" y="-1048" clip-path="url(#clipPath2)" fill="rgb(196,215,237)" width="422" height="103" stroke="none"/>
      <rect x="83" y="-945" clip-path="url(#clipPath2)" fill="rgb(171,200,226)" width="24" height="111.5" stroke="none"/>
      <rect x="107" y="-945" clip-path="url(#clipPath2)" fill="rgb(171,200,226)" width="422" height="111.5" stroke="none"/>
    </g>
    <g text-rendering="geometricPrecision" stroke-miterlimit="1.45" shape-rendering="geometricPrecision" transform="matrix(1,0,0,1,-68,1311)" stroke-linecap="butt">
      <rect fill="none" x="83" width="446" height="462.5" y="-1296" clip-path="url(#clipPath2)"/>
      <rect fill="none" x="107" width="422" height="432.5" y="-1266" clip-path="url(#clipPath2)"/>
      <rect fill="none" x="83" width="446" height="110" y="-1266" clip-path="url(#clipPath2)"/>
      <rect fill="none" x="83" width="446" height="108" y="-1156" clip-path="url(#clipPath2)"/>
      <rect fill="none" x="83" width="446" height="103" y="-1048" clip-path="url(#clipPath2)"/>
      <rect fill="none" x="83" width="446" height="111.5" y="-945" clip-path="url(#clipPath2)"/>
    </g>
    <g font-size="15px" stroke-linecap="butt" transform="matrix(1,0,0,1,-68,1311)" text-rendering="geometricPrecision" font-family="sans-serif" shape-rendering="geometricPrecision" stroke-miterlimit="1.45">
      <text x="162.8701" xml:space="preserve" y="-1275.498" clip-path="url(#clipPath2)" stroke="none">Varying User Views of Fossil Repository</text>
    </g>
    <g text-rendering="geometricPrecision" stroke-miterlimit="1.45" shape-rendering="geometricPrecision" font-family="sans-serif" transform="matrix(-0,-1,1,-0,18,121.0518)" stroke-linecap="butt">
      <text x="2" xml:space="preserve" y="13.6016" clip-path="url(#clipPath3)" stroke="none">User A</text>
    </g>
    <g text-rendering="geometricPrecision" stroke-miterlimit="1.45" shape-rendering="geometricPrecision" font-family="sans-serif" transform="matrix(-0,-1,1,-0,18,229.3633)" stroke-linecap="butt">
      <text x="2" xml:space="preserve" y="13.6016" clip-path="url(#clipPath4)" stroke="none">User B</text>
    </g>
    <g text-rendering="geometricPrecision" stroke-miterlimit="1.45" shape-rendering="geometricPrecision" font-family="sans-serif" transform="matrix(-0,-1,1,-0,18,335.5635)" stroke-linecap="butt">
      <text x="2" xml:space="preserve" y="13.6016" clip-path="url(#clipPath5)" stroke="none">User C</text>
    </g>
    <g text-rendering="geometricPrecision" stroke-miterlimit="1.45" shape-rendering="geometricPrecision" font-family="sans-serif" transform="matrix(-0,-1,1,-0,18,443.1562)" stroke-linecap="butt">
      <text x="2" xml:space="preserve" y="13.6016" clip-path="url(#clipPath6)" stroke="none">User D</text>
    </g>
    <g fill="white" text-rendering="geometricPrecision" shape-rendering="geometricPrecision" transform="matrix(1,0,0,1,-68,1311)" stroke="white">
      <circle r="15" clip-path="url(#clipPath2)" cx="135" cy="-1123" stroke="none"/>
    </g>
    <g text-rendering="geometricPrecision" stroke-miterlimit="1.45" stroke-width="2" shape-rendering="geometricPrecision" transform="matrix(1,0,0,1,-68,1311)" stroke-linecap="butt">
      <circle fill="none" r="15" clip-path="url(#clipPath2)" cx="135" cy="-1123"/>
      <text x="131.2061" y="-1118.4648" clip-path="url(#clipPath2)" font-family="sans-serif" stroke="none" stroke-width="1" xml:space="preserve">1</text>
    </g>
    <g fill="white" text-rendering="geometricPrecision" shape-rendering="geometricPrecision" transform="matrix(1,0,0,1,-68,1311)" stroke="white">
      <circle r="15" clip-path="url(#clipPath2)" cx="195" cy="-1080.5" stroke="none"/>
    </g>
    <g text-rendering="geometricPrecision" stroke-miterlimit="1.45" stroke-width="2" shape-rendering="geometricPrecision" transform="matrix(1,0,0,1,-68,1311)" stroke-linecap="butt">
      <circle fill="none" r="15" clip-path="url(#clipPath2)" cx="195" cy="-1080.5"/>
      <text x="191.2061" y="-1075.9648" clip-path="url(#clipPath2)" font-family="sans-serif" stroke="none" stroke-width="1" xml:space="preserve">3</text>
    </g>
    <g fill="white" text-rendering="geometricPrecision" shape-rendering="geometricPrecision" transform="matrix(1,0,0,1,-68,1311)" stroke="white">
      <ellipse rx="32" ry="15" clip-path="url(#clipPath2)" cx="474" cy="-1123" stroke="none"/>
    </g>
    <g text-rendering="geometricPrecision" stroke-miterlimit="1.45" stroke-width="2" shape-rendering="geometricPrecision" transform="matrix(1,0,0,1,-68,1311)" stroke-linecap="butt">
      <ellipse rx="32" fill="none" ry="15" clip-path="url(#clipPath2)" cx="474" cy="-1123"/>
      <text x="456.3047" y="-1118.4648" clip-path="url(#clipPath2)" font-family="sans-serif" stroke="none" stroke-width="1" xml:space="preserve">future</text>
    </g>
    <g fill="white" text-rendering="geometricPrecision" shape-rendering="geometricPrecision" transform="matrix(1,0,0,1,-68,1311)" stroke="white">
      <circle r="15" clip-path="url(#clipPath2)" cx="195" cy="-1123" stroke="none"/>
    </g>
    <g text-rendering="geometricPrecision" stroke-miterlimit="1.45" stroke-width="2" shape-rendering="geometricPrecision" transform="matrix(1,0,0,1,-68,1311)" stroke-linecap="butt">
      <circle fill="none" r="15" clip-path="url(#clipPath2)" cx="195" cy="-1123"/>
      <text x="191.2061" y="-1118.4648" clip-path="url(#clipPath2)" font-family="sans-serif" stroke="none" stroke-width="1" xml:space="preserve">2</text>
    </g>
    <g fill="silver" text-rendering="geometricPrecision" shape-rendering="geometricPrecision" transform="matrix(1,0,0,1,-68,1311)" stroke="silver">
      <circle r="15" clip-path="url(#clipPath2)" cx="255" cy="-1080.5" stroke="none"/>
    </g>
    <g text-rendering="geometricPrecision" stroke-miterlimit="1.45" stroke-width="2" shape-rendering="geometricPrecision" transform="matrix(1,0,0,1,-68,1311)" stroke-linecap="butt">
      <circle fill="none" r="15" clip-path="url(#clipPath2)" cx="255" cy="-1080.5"/>
      <text x="251.2061" y="-1075.9648" clip-path="url(#clipPath2)" font-family="sans-serif" stroke="none" stroke-width="1" xml:space="preserve">4</text>
    </g>
    <g fill="white" text-rendering="geometricPrecision" shape-rendering="geometricPrecision" transform="matrix(1,0,0,1,-68,1311)" stroke="white">
      <circle r="15" clip-path="url(#clipPath2)" cx="135" cy="-910.834" stroke="none"/>
    </g>
    <g text-rendering="geometricPrecision" stroke-miterlimit="1.45" stroke-width="2" shape-rendering="geometricPrecision" transform="matrix(1,0,0,1,-68,1311)" stroke-linecap="butt">
      <circle fill="none" r="15" clip-path="url(#clipPath2)" cx="135" cy="-910.834"/>
      <text x="131.2061" y="-906.2988" clip-path="url(#clipPath2)" font-family="sans-serif" stroke="none" stroke-width="1" xml:space="preserve">1</text>
    </g>
    <g fill="white" text-rendering="geometricPrecision" shape-rendering="geometricPrecision" transform="matrix(1,0,0,1,-68,1311)" stroke="white">
      <circle r="15" clip-path="url(#clipPath2)" cx="195" cy="-868.334" stroke="none"/>
    </g>
    <g text-rendering="geometricPrecision" stroke-miterlimit="1.45" stroke-width="2" shape-rendering="geometricPrecision" transform="matrix(1,0,0,1,-68,1311)" stroke-linecap="butt">
      <circle fill="none" r="15" clip-path="url(#clipPath2)" cx="195" cy="-868.334"/>
      <text x="191.2061" y="-863.7988" clip-path="url(#clipPath2)" font-family="sans-serif" stroke="none" stroke-width="1" xml:space="preserve">3</text>
    </g>
    <g fill="white" text-rendering="geometricPrecision" shape-rendering="geometricPrecision" transform="matrix(1,0,0,1,-68,1311)" stroke="white">
      <ellipse rx="32" ry="15" clip-path="url(#clipPath2)" cx="474" cy="-910.834" stroke="none"/>
    </g>
    <g text-rendering="geometricPrecision" stroke-miterlimit="1.45" stroke-width="2" shape-rendering="geometricPrecision" transform="matrix(1,0,0,1,-68,1311)" stroke-linecap="butt">
      <ellipse rx="32" fill="none" ry="15" clip-path="url(#clipPath2)" cx="474" cy="-910.834"/>
      <text x="456.3047" y="-906.2988" clip-path="url(#clipPath2)" font-family="sans-serif" stroke="none" stroke-width="1" xml:space="preserve">future</text>
    </g>
    <g fill="white" text-rendering="geometricPrecision" shape-rendering="geometricPrecision" transform="matrix(1,0,0,1,-68,1311)" stroke="white">
      <circle r="15" clip-path="url(#clipPath2)" cx="195" cy="-910.834" stroke="none"/>
    </g>
    <g text-rendering="geometricPrecision" stroke-miterlimit="1.45" stroke-width="2" shape-rendering="geometricPrecision" transform="matrix(1,0,0,1,-68,1311)" stroke-linecap="butt">
      <circle fill="none" r="15" clip-path="url(#clipPath2)" cx="195" cy="-910.834"/>
      <text x="191.2061" y="-906.2988" clip-path="url(#clipPath2)" font-family="sans-serif" stroke="none" stroke-width="1" xml:space="preserve">2</text>
    </g>
    <g fill="white" text-rendering="geometricPrecision" shape-rendering="geometricPrecision" transform="matrix(1,0,0,1,-68,1311)" stroke="white">
      <circle r="15" clip-path="url(#clipPath2)" cx="255" cy="-868.334" stroke="none"/>
    </g>
    <g text-rendering="geometricPrecision" stroke-miterlimit="1.45" stroke-width="2" shape-rendering="geometricPrecision" transform="matrix(1,0,0,1,-68,1311)" stroke-linecap="butt">
      <circle fill="none" r="15" clip-path="url(#clipPath2)" cx="255" cy="-868.334"/>
      <text x="251.2061" y="-863.7988" clip-path="url(#clipPath2)" font-family="sans-serif" stroke="none" stroke-width="1" xml:space="preserve">4</text>
    </g>
    <g fill="white" text-rendering="geometricPrecision" shape-rendering="geometricPrecision" transform="matrix(1,0,0,1,-68,1311)" stroke="white">
      <circle r="15" clip-path="url(#clipPath2)" cx="315" cy="-910.834" stroke="none"/>
    </g>
    <g text-rendering="geometricPrecision" stroke-miterlimit="1.45" stroke-width="2" shape-rendering="geometricPrecision" transform="matrix(1,0,0,1,-68,1311)" stroke-linecap="butt">
      <circle fill="none" r="15" clip-path="url(#clipPath2)" cx="315" cy="-910.834"/>
      <text x="311.2061" y="-906.2988" clip-path="url(#clipPath2)" font-family="sans-serif" stroke="none" stroke-width="1" xml:space="preserve">5</text>
    </g>
    <g fill="silver" text-rendering="geometricPrecision" shape-rendering="geometricPrecision" transform="matrix(1,0,0,1,-68,1311)" stroke="silver">
      <circle r="15" clip-path="url(#clipPath2)" cx="375" cy="-910.834" stroke="none"/>
    </g>
    <g text-rendering="geometricPrecision" stroke-miterlimit="1.45" stroke-width="2" shape-rendering="geometricPrecision" transform="matrix(1,0,0,1,-68,1311)" stroke-linecap="butt">
      <circle fill="none" r="15" clip-path="url(#clipPath2)" cx="375" cy="-910.834"/>
      <text x="371.2061" y="-906.2988" clip-path="url(#clipPath2)" font-family="sans-serif" stroke="none" stroke-width="1" xml:space="preserve">6</text>
    </g>
    <g fill="white" text-rendering="geometricPrecision" shape-rendering="geometricPrecision" transform="matrix(1,0,0,1,-68,1311)" stroke="white">
      <circle r="15" clip-path="url(#clipPath2)" cx="135" cy="-1234" stroke="none"/>
    </g>
    <g text-rendering="geometricPrecision" stroke-miterlimit="1.45" stroke-width="2" shape-rendering="geometricPrecision" transform="matrix(1,0,0,1,-68,1311)" stroke-linecap="butt">
      <circle fill="none" r="15" clip-path="url(#clipPath2)" cx="135" cy="-1234"/>
      <text x="131.2061" y="-1229.4648" clip-path="url(#clipPath2)" font-family="sans-serif" stroke="none" stroke-width="1" xml:space="preserve">1</text>
    </g>
    <g fill="silver" text-rendering="geometricPrecision" shape-rendering="geometricPrecision" transform="matrix(1,0,0,1,-68,1311)" stroke="silver">
      <circle r="15" clip-path="url(#clipPath2)" cx="195" cy="-1191.5" stroke="none"/>
    </g>
    <g text-rendering="geometricPrecision" stroke-miterlimit="1.45" stroke-width="2" shape-rendering="geometricPrecision" transform="matrix(1,0,0,1,-68,1311)" stroke-linecap="butt">
      <circle fill="none" r="15" clip-path="url(#clipPath2)" cx="195" cy="-1191.5"/>
      <text x="191.2061" y="-1186.9648" clip-path="url(#clipPath2)" font-family="sans-serif" stroke="none" stroke-width="1" xml:space="preserve">3</text>
    </g>
    <g fill="white" text-rendering="geometricPrecision" shape-rendering="geometricPrecision" transform="matrix(1,0,0,1,-68,1311)" stroke="white">
      <ellipse rx="32" ry="15" clip-path="url(#clipPath2)" cx="474" cy="-1234" stroke="none"/>
    </g>
    <g text-rendering="geometricPrecision" stroke-miterlimit="1.45" stroke-width="2" shape-rendering="geometricPrecision" transform="matrix(1,0,0,1,-68,1311)" stroke-linecap="butt">
      <ellipse rx="32" fill="none" ry="15" clip-path="url(#clipPath2)" cx="474" cy="-1234"/>
      <text x="456.3047" y="-1229.4648" clip-path="url(#clipPath2)" font-family="sans-serif" stroke="none" stroke-width="1" xml:space="preserve">future</text>
    </g>
    <g fill="white" text-rendering="geometricPrecision" shape-rendering="geometricPrecision" transform="matrix(1,0,0,1,-68,1311)" stroke="white">
      <circle r="15" clip-path="url(#clipPath2)" cx="195" cy="-1234" stroke="none"/>
    </g>
    <g text-rendering="geometricPrecision" stroke-miterlimit="1.45" stroke-width="2" shape-rendering="geometricPrecision" transform="matrix(1,0,0,1,-68,1311)" stroke-linecap="butt">
      <circle fill="none" r="15" clip-path="url(#clipPath2)" cx="195" cy="-1234"/>
      <text x="191.2061" y="-1229.4648" clip-path="url(#clipPath2)" font-family="sans-serif" stroke="none" stroke-width="1" xml:space="preserve">2</text>
    </g>
    <g fill="white" text-rendering="geometricPrecision" shape-rendering="geometricPrecision" transform="matrix(1,0,0,1,-68,1311)" stroke="white">
      <circle r="15" clip-path="url(#clipPath2)" cx="195" cy="-1005.667" stroke="none"/>
    </g>
    <g text-rendering="geometricPrecision" stroke-miterlimit="1.45" stroke-width="2" shape-rendering="geometricPrecision" transform="matrix(1,0,0,1,-68,1311)" stroke-linecap="butt">
      <circle fill="none" r="15" clip-path="url(#clipPath2)" cx="195" cy="-1005.667"/>
      <text x="191.2061" y="-1001.1318" clip-path="url(#clipPath2)" font-family="sans-serif" stroke="none" stroke-width="1" xml:space="preserve">2</text>
    </g>
    <g fill="silver" text-rendering="geometricPrecision" shape-rendering="geometricPrecision" transform="matrix(1,0,0,1,-68,1311)" stroke="silver">
      <circle r="15" clip-path="url(#clipPath2)" cx="315" cy="-1005.667" stroke="none"/>
    </g>
    <g text-rendering="geometricPrecision" stroke-miterlimit="1.45" stroke-width="2" shape-rendering="geometricPrecision" transform="matrix(1,0,0,1,-68,1311)" stroke-linecap="butt">
      <circle fill="none" r="15" clip-path="url(#clipPath2)" cx="315" cy="-1005.667"/>
      <text x="311.2061" y="-1001.1318" clip-path="url(#clipPath2)" font-family="sans-serif" stroke="none" stroke-width="1" xml:space="preserve">5</text>
    </g>
    <g fill="white" text-rendering="geometricPrecision" shape-rendering="geometricPrecision" transform="matrix(1,0,0,1,-68,1311)" stroke="white">
      <circle r="15" clip-path="url(#clipPath2)" cx="135" cy="-1005.667" stroke="none"/>
    </g>
    <g text-rendering="geometricPrecision" stroke-miterlimit="1.45" stroke-width="2" shape-rendering="geometricPrecision" transform="matrix(1,0,0,1,-68,1311)" stroke-linecap="butt">
      <circle fill="none" r="15" clip-path="url(#clipPath2)" cx="135" cy="-1005.667"/>
      <text x="131.2061" y="-1001.1318" clip-path="url(#clipPath2)" font-family="sans-serif" stroke="none" stroke-width="1" xml:space="preserve">1</text>
    </g>
    <g fill="white" text-rendering="geometricPrecision" shape-rendering="geometricPrecision" transform="matrix(1,0,0,1,-68,1311)" stroke="white">
      <ellipse rx="32" ry="15" clip-path="url(#clipPath2)" cx="474" cy="-1005.667" stroke="none"/>
    </g>
    <g text-rendering="geometricPrecision" stroke-miterlimit="1.45" stroke-width="2" shape-rendering="geometricPrecision" transform="matrix(1,0,0,1,-68,1311)" stroke-linecap="butt">
      <ellipse rx="32" fill="none" ry="15" clip-path="url(#clipPath2)" cx="474" cy="-1005.667"/>
      <text x="456.3047" y="-1001.1318" clip-path="url(#clipPath2)" font-family="sans-serif" stroke="none" stroke-width="1" xml:space="preserve">future</text>
      <path fill="none" d="M147.2404 -1114.3297 L176.2314 -1093.7944" stroke-width="1" clip-path="url(#clipPath2)"/>
      <path d="M182.7596 -1089.1703 L175.8574 -1100.1866 L175.4154 -1094.3724 L170.0773 -1092.0264 Z" stroke-width="1" clip-path="url(#clipPath2)" stroke="none"/>
      <path fill="none" d="M150 -1123 L172 -1123" stroke-width="1" clip-path="url(#clipPath2)"/>
      <path d="M180 -1123 L168 -1128 L171 -1123 L168 -1118 Z" stroke-width="1" clip-path="url(#clipPath2)" stroke="none"/>
      <path fill="none" d="M210 -1123 L434 -1123" stroke-width="1" clip-path="url(#clipPath2)"/>
      <path d="M442 -1123 L430 -1128 L433 -1123 L430 -1118 Z" stroke-width="1" clip-path="url(#clipPath2)" stroke="none"/>
      <path fill="none" d="M210 -1080.5 L232 -1080.5" stroke-width="1" clip-path="url(#clipPath2)"/>
      <path d="M240 -1080.5 L228 -1085.5 L231 -1080.5 L228 -1075.5 Z" stroke-width="1" clip-path="url(#clipPath2)" stroke="none"/>
      <path fill="none" d="M147.2404 -902.1637 L176.2314 -881.6284" stroke-width="1" clip-path="url(#clipPath2)"/>
      <path d="M182.7597 -877.0043 L175.8574 -888.0206 L175.4154 -882.2064 L170.0773 -879.8603 Z" stroke-width="1" clip-path="url(#clipPath2)" stroke="none"/>
      <path fill="none" d="M150 -910.834 L172 -910.834" stroke-width="1" clip-path="url(#clipPath2)"/>
      <path d="M180 -910.834 L168 -915.834 L171 -910.834 L168 -905.834 Z" stroke-width="1" clip-path="url(#clipPath2)" stroke="none"/>
      <path fill="none" d="M210 -868.334 L232 -868.334" stroke-width="1" clip-path="url(#clipPath2)"/>
      <path d="M240 -868.334 L228 -873.334 L231 -868.334 L228 -863.334 Z" stroke-width="1" clip-path="url(#clipPath2)" stroke="none"/>
      <path fill="none" d="M210 -910.834 L292 -910.834" stroke-width="1" clip-path="url(#clipPath2)"/>
      <path d="M300 -910.834 L288 -915.834 L291 -910.834 L288 -905.834 Z" stroke-width="1" clip-path="url(#clipPath2)" stroke="none"/>
      <path fill="none" d="M330 -910.834 L352 -910.834" stroke-width="1" clip-path="url(#clipPath2)"/>
      <path d="M360 -910.834 L348 -915.834 L351 -910.834 L348 -905.834 Z" stroke-width="1" clip-path="url(#clipPath2)" stroke="none"/>
      <path fill="none" d="M390 -910.834 L434 -910.834" stroke-width="1" clip-path="url(#clipPath2)"/>
      <path d="M442 -910.834 L430 -915.834 L433 -910.834 L430 -905.834 Z" stroke-width="1" clip-path="url(#clipPath2)" stroke="none"/>
      <path fill="none" d="M147.2404 -1225.3297 L176.2314 -1204.7944" stroke-width="1" clip-path="url(#clipPath2)"/>
      <path d="M182.7596 -1200.1703 L175.8574 -1211.1866 L175.4154 -1205.3724 L170.0773 -1203.0264 Z" stroke-width="1" clip-path="url(#clipPath2)" stroke="none"/>
      <text x="134.248" y="-1200.7979" clip-path="url(#clipPath2)" font-family="sans-serif" stroke="none" stroke-width="1" xml:space="preserve">fork!</text>
      <path fill="none" d="M150 -1234 L172 -1234" stroke-width="1" clip-path="url(#clipPath2)"/>
      <path d="M180 -1234 L168 -1239 L171 -1234 L168 -1229 Z" stroke-width="1" clip-path="url(#clipPath2)" stroke="none"/>
      <path fill="none" d="M210 -1234 L434 -1234" stroke-width="1" clip-path="url(#clipPath2)"/>
      <path d="M442 -1234 L430 -1239 L433 -1234 L430 -1229 Z" stroke-width="1" clip-path="url(#clipPath2)" stroke="none"/>
      <path fill="none" d="M210 -1005.667 L292 -1005.667" stroke-width="1" clip-path="url(#clipPath2)"/>
      <path d="M300 -1005.667 L288 -1010.667 L291 -1005.667 L288 -1000.667 Z" stroke-width="1" clip-path="url(#clipPath2)" stroke="none"/>
      <text x="220.6406" y="-1014.1982" clip-path="url(#clipPath2)" font-family="sans-serif" stroke="none" stroke-width="1" xml:space="preserve">goes offline</text>
      <path fill="none" d="M150 -1005.667 L172 -1005.667" stroke-width="1" clip-path="url(#clipPath2)"/>
      <path d="M180 -1005.667 L168 -1010.667 L171 -1005.667 L168 -1000.667 Z" stroke-width="1" clip-path="url(#clipPath2)" stroke="none"/>
      <path fill="none" d="M330 -1005.667 L434 -1005.667" stroke-width="1" clip-path="url(#clipPath2)"/>
      <path d="M442 -1005.667 L430 -1010.667 L433 -1005.667 L430 -1000.667 Z" stroke-width="1" clip-path="url(#clipPath2)" stroke="none"/>
      <text x="350.5889" y="-990.0654" clip-path="url(#clipPath2)" font-family="sans-serif" stroke="none" stroke-width="1" xml:space="preserve">back online,</text>
      <text x="357.7256" y="-975.9326" clip-path="url(#clipPath2)" font-family="sans-serif" stroke="none" stroke-width="1" xml:space="preserve">pushes 5,</text>
      <text x="354.5059" y="-961.7998" clip-path="url(#clipPath2)" font-family="sans-serif" stroke="none" stroke-width="1" xml:space="preserve">pulls 3 &amp; 4</text>
    </g>
  </g>
</svg>
