<?xml version="1.0" encoding="UTF-8"?><svg xmlns="http://www.w3.org/2000/svg" xmlns:xlink="http://www.w3.org/1999/xlink" fill-opacity="1" color-rendering="auto" color-interpolation="auto" text-rendering="auto" stroke="black" stroke-linecap="square" width="517" stroke-miterlimit="10" shape-rendering="auto" stroke-opacity="1" fill="black" stroke-dasharray="none" font-weight="normal" stroke-width="1" height="501" font-family="'Dialog'" font-style="normal" stroke-linejoin="miter" font-size="12px" stroke-dashoffset="0" image-rendering="auto">
  <!--Generated by ySVG 2.5-->
  <defs id="genericDefs"/>
  <g>
    <defs id="defs1">
      <clipPath clipPathUnits="userSpaceOnUse" id="clipPath1">
        <path d="M0 0 L517 0 L517 501 L0 501 L0 0 Z"/>
      </clipPath>
      <clipPath clipPathUnits="userSpaceOnUse" id="clipPath2">
        <path d="M-223 -1949 L294 -1949 L294 -1448 L-223 -1448 L-223 -1949 Z"/>
      </clipPath>
      <clipPath clipPathUnits="userSpaceOnUse" id="clipPath3">
        <path d="M115.2451 -18 L115.2451 499 L-385.7549 499 L-385.7549 -18 L115.2451 -18 Z"/>
      </clipPath>
      <clipPath clipPathUnits="userSpaceOnUse" id="clipPath4">
        <path d="M226.751 -18 L226.751 499 L-274.249 499 L-274.249 -18 L226.751 -18 Z"/>
      </clipPath>
      <clipPath clipPathUnits="userSpaceOnUse" id="clipPath5">
        <path d="M342.2891 -18 L342.2891 499 L-158.7109 499 L-158.7109 -18 L342.2891 -18 Z"/>
      </clipPath>
      <clipPath clipPathUnits="userSpaceOnUse" id="clipPath6">
        <path d="M454.2402 -18 L454.2402 499 L-46.7598 499 L-46.7598 -18 L454.2402 -18 Z"/>
      </clipPath>
    </defs>
    <g fill="rgb(236,245,255)" text-rendering="geometricPrecision" shape-rendering="geometricPrecision" transform="matrix(1,0,0,1,223,1949)" stroke="rgb(236,245,255)">
      <path d="M-208 -1933.666 L-208 -1903.666 L279 -1903.666 L279 -1933.666 Z" stroke="none" clip-path="url(#clipPath2)"/>
      <rect x="-208" width="487" height="440" y="-1903.666" clip-path="url(#clipPath2)" stroke="none"/>
      <line clip-path="url(#clipPath2)" fill="rgb(113,146,178)" x1="-184" x2="279" y1="-1903.666" y2="-1903.666" stroke="none"/>
      <rect x="-208" y="-1903.666" clip-path="url(#clipPath2)" fill="rgb(196,215,237)" width="24" height="110" stroke="none"/>
      <rect x="-184" y="-1903.666" clip-path="url(#clipPath2)" fill="rgb(196,215,237)" width="463" height="110" stroke="none"/>
      <rect x="-208" y="-1793.666" clip-path="url(#clipPath2)" fill="rgb(171,200,226)" width="24" height="110" stroke="none"/>
      <rect x="-184" y="-1793.666" clip-path="url(#clipPath2)" fill="rgb(171,200,226)" width="463" height="110" stroke="none"/>
      <rect x="-208" y="-1683.666" clip-path="url(#clipPath2)" fill="rgb(196,215,237)" width="24" height="109" stroke="none"/>
      <rect x="-184" y="-1683.666" clip-path="url(#clipPath2)" fill="rgb(196,215,237)" width="463" height="109" stroke="none"/>
      <rect x="-208" y="-1574.666" clip-path="url(#clipPath2)" fill="rgb(171,200,226)" width="24" height="111" stroke="none"/>
      <rect x="-184" y="-1574.666" clip-path="url(#clipPath2)" fill="rgb(171,200,226)" width="463" height="111" stroke="none"/>
    </g>
    <g text-rendering="geometricPrecision" stroke-miterlimit="1.45" shape-rendering="geometricPrecision" transform="matrix(1,0,0,1,223,1949)" stroke-linecap="butt">
      <rect fill="none" x="-208" width="487" height="470" y="-1933.666" clip-path="url(#clipPath2)"/>
      <rect fill="none" x="-184" width="463" height="440" y="-1903.666" clip-path="url(#clipPath2)"/>
      <rect fill="none" x="-208" width="487" height="110" y="-1903.666" clip-path="url(#clipPath2)"/>
      <rect fill="none" x="-208" width="487" height="110" y="-1793.666" clip-path="url(#clipPath2)"/>
      <rect fill="none" x="-208" width="487" height="109" y="-1683.666" clip-path="url(#clipPath2)"/>
      <rect fill="none" x="-208" width="487" height="111" y="-1574.666" clip-path="url(#clipPath2)"/>
    </g>
    <g font-size="15px" stroke-linecap="butt" transform="matrix(1,0,0,1,223,1949)" text-rendering="geometricPrecision" font-family="sans-serif" shape-rendering="geometricPrecision" stroke-miterlimit="1.45">
      <text x="-107.6299" xml:space="preserve" y="-1913.1641" clip-path="url(#clipPath2)" stroke="none">Varying User Views of Fossil Repository</text>
    </g>
    <g text-rendering="geometricPrecision" stroke-miterlimit="1.45" shape-rendering="geometricPrecision" font-family="sans-serif" transform="matrix(-0,-1,1,-0,18,115.2451)" stroke-linecap="butt">
      <text x="2" xml:space="preserve" y="13.6016" clip-path="url(#clipPath3)" stroke="none">Alan</text>
    </g>
    <g text-rendering="geometricPrecision" stroke-miterlimit="1.45" shape-rendering="geometricPrecision" font-family="sans-serif" transform="matrix(-0,-1,1,-0,18,226.751)" stroke-linecap="butt">
      <text x="2" xml:space="preserve" y="13.6016" clip-path="url(#clipPath4)" stroke="none">Betty</text>
    </g>
    <g text-rendering="geometricPrecision" stroke-miterlimit="1.45" shape-rendering="geometricPrecision" font-family="sans-serif" transform="matrix(-0,-1,1,-0,18,342.2891)" stroke-linecap="butt">
      <text x="2" xml:space="preserve" y="13.6016" clip-path="url(#clipPath5)" stroke="none">Charlie</text>
    </g>
    <g text-rendering="geometricPrecision" stroke-miterlimit="1.45" shape-rendering="geometricPrecision" font-family="sans-serif" transform="matrix(-0,-1,1,-0,18,454.2402)" stroke-linecap="butt">
      <text x="2" xml:space="preserve" y="13.6016" clip-path="url(#clipPath6)" stroke="none">Darlene</text>
    </g>
    <g fill="white" text-rendering="geometricPrecision" shape-rendering="geometricPrecision" transform="matrix(1,0,0,1,223,1949)" stroke="white">
      <circle r="15" clip-path="url(#clipPath2)" cx="-157" cy="-1760.666" stroke="none"/>
    </g>
    <g text-rendering="geometricPrecision" stroke-miterlimit="1.45" stroke-width="2" shape-rendering="geometricPrecision" transform="matrix(1,0,0,1,223,1949)" stroke-linecap="butt">
      <circle fill="none" r="15" clip-path="url(#clipPath2)" cx="-157" cy="-1760.666"/>
      <text x="-160.7939" y="-1756.1309" clip-path="url(#clipPath2)" font-family="sans-serif" stroke="none" stroke-width="1" xml:space="preserve">1</text>
    </g>
    <g fill="white" text-rendering="geometricPrecision" shape-rendering="geometricPrecision" transform="matrix(1,0,0,1,223,1949)" stroke="white">
      <circle r="15" clip-path="url(#clipPath2)" cx="-50" cy="-1718.166" stroke="none"/>
    </g>
    <g text-rendering="geometricPrecision" stroke-miterlimit="1.45" stroke-width="2" shape-rendering="geometricPrecision" transform="matrix(1,0,0,1,223,1949)" stroke-linecap="butt">
      <circle fill="none" r="15" clip-path="url(#clipPath2)" cx="-50" cy="-1718.166"/>
      <text x="-53.7939" y="-1713.6309" clip-path="url(#clipPath2)" font-family="sans-serif" stroke="none" stroke-width="1" xml:space="preserve">3</text>
    </g>
    <g fill="white" text-rendering="geometricPrecision" shape-rendering="geometricPrecision" transform="matrix(1,0,0,1,223,1949)" stroke="white">
      <ellipse rx="32" ry="15" clip-path="url(#clipPath2)" cx="229" cy="-1760.666" stroke="none"/>
    </g>
    <g text-rendering="geometricPrecision" stroke-miterlimit="1.45" stroke-width="2" shape-rendering="geometricPrecision" transform="matrix(1,0,0,1,223,1949)" stroke-linecap="butt">
      <ellipse rx="32" fill="none" ry="15" clip-path="url(#clipPath2)" cx="229" cy="-1760.666"/>
      <text x="211.3047" y="-1756.1309" clip-path="url(#clipPath2)" font-family="sans-serif" stroke="none" stroke-width="1" xml:space="preserve">future</text>
    </g>
    <g fill="white" text-rendering="geometricPrecision" shape-rendering="geometricPrecision" transform="matrix(1,0,0,1,223,1949)" stroke="white">
      <circle r="15" clip-path="url(#clipPath2)" cx="-97" cy="-1760.666" stroke="none"/>
    </g>
    <g text-rendering="geometricPrecision" stroke-miterlimit="1.45" stroke-width="2" shape-rendering="geometricPrecision" transform="matrix(1,0,0,1,223,1949)" stroke-linecap="butt">
      <circle fill="none" r="15" clip-path="url(#clipPath2)" cx="-97" cy="-1760.666"/>
      <text x="-100.7939" y="-1756.1309" clip-path="url(#clipPath2)" font-family="sans-serif" stroke="none" stroke-width="1" xml:space="preserve">2</text>
    </g>
    <g fill="silver" text-rendering="geometricPrecision" shape-rendering="geometricPrecision" transform="matrix(1,0,0,1,223,1949)" stroke="silver">
      <circle r="15" clip-path="url(#clipPath2)" cx="10" cy="-1718.166" stroke="none"/>
    </g>
    <g text-rendering="geometricPrecision" stroke-miterlimit="1.45" stroke-width="2" shape-rendering="geometricPrecision" transform="matrix(1,0,0,1,223,1949)" stroke-linecap="butt">
      <circle fill="none" r="15" clip-path="url(#clipPath2)" cx="10" cy="-1718.166"/>
      <text x="6.2061" y="-1713.6309" clip-path="url(#clipPath2)" font-family="sans-serif" stroke="none" stroke-width="1" xml:space="preserve">4</text>
    </g>
    <g fill="white" text-rendering="geometricPrecision" shape-rendering="geometricPrecision" transform="matrix(1,0,0,1,223,1949)" stroke="white">
      <circle r="15" clip-path="url(#clipPath2)" cx="-157" cy="-1541.5" stroke="none"/>
    </g>
    <g text-rendering="geometricPrecision" stroke-miterlimit="1.45" stroke-width="2" shape-rendering="geometricPrecision" transform="matrix(1,0,0,1,223,1949)" stroke-linecap="butt">
      <circle fill="none" r="15" clip-path="url(#clipPath2)" cx="-157" cy="-1541.5"/>
      <text x="-160.7939" y="-1536.9648" clip-path="url(#clipPath2)" font-family="sans-serif" stroke="none" stroke-width="1" xml:space="preserve">1</text>
    </g>
    <g fill="white" text-rendering="geometricPrecision" shape-rendering="geometricPrecision" transform="matrix(1,0,0,1,223,1949)" stroke="white">
      <circle r="15" clip-path="url(#clipPath2)" cx="-50" cy="-1499" stroke="none"/>
    </g>
    <g text-rendering="geometricPrecision" stroke-miterlimit="1.45" stroke-width="2" shape-rendering="geometricPrecision" transform="matrix(1,0,0,1,223,1949)" stroke-linecap="butt">
      <circle fill="none" r="15" clip-path="url(#clipPath2)" cx="-50" cy="-1499"/>
      <text x="-53.7939" y="-1494.4648" clip-path="url(#clipPath2)" font-family="sans-serif" stroke="none" stroke-width="1" xml:space="preserve">3</text>
    </g>
    <g fill="white" text-rendering="geometricPrecision" shape-rendering="geometricPrecision" transform="matrix(1,0,0,1,223,1949)" stroke="white">
      <ellipse rx="32" ry="15" clip-path="url(#clipPath2)" cx="229" cy="-1541.5" stroke="none"/>
    </g>
    <g text-rendering="geometricPrecision" stroke-miterlimit="1.45" stroke-width="2" shape-rendering="geometricPrecision" transform="matrix(1,0,0,1,223,1949)" stroke-linecap="butt">
      <ellipse rx="32" fill="none" ry="15" clip-path="url(#clipPath2)" cx="229" cy="-1541.5"/>
      <text x="211.3047" y="-1536.9648" clip-path="url(#clipPath2)" font-family="sans-serif" stroke="none" stroke-width="1" xml:space="preserve">future</text>
    </g>
    <g fill="white" text-rendering="geometricPrecision" shape-rendering="geometricPrecision" transform="matrix(1,0,0,1,223,1949)" stroke="white">
      <circle r="15" clip-path="url(#clipPath2)" cx="-97" cy="-1541.5" stroke="none"/>
    </g>
    <g text-rendering="geometricPrecision" stroke-miterlimit="1.45" stroke-width="2" shape-rendering="geometricPrecision" transform="matrix(1,0,0,1,223,1949)" stroke-linecap="butt">
      <circle fill="none" r="15" clip-path="url(#clipPath2)" cx="-97" cy="-1541.5"/>
      <text x="-100.7939" y="-1536.9648" clip-path="url(#clipPath2)" font-family="sans-serif" stroke="none" stroke-width="1" xml:space="preserve">2</text>
    </g>
    <g fill="white" text-rendering="geometricPrecision" shape-rendering="geometricPrecision" transform="matrix(1,0,0,1,223,1949)" stroke="white">
      <circle r="15" clip-path="url(#clipPath2)" cx="10" cy="-1499" stroke="none"/>
    </g>
    <g text-rendering="geometricPrecision" stroke-miterlimit="1.45" stroke-width="2" shape-rendering="geometricPrecision" transform="matrix(1,0,0,1,223,1949)" stroke-linecap="butt">
      <circle fill="none" r="15" clip-path="url(#clipPath2)" cx="10" cy="-1499"/>
      <text x="6.2061" y="-1494.4648" clip-path="url(#clipPath2)" font-family="sans-serif" stroke="none" stroke-width="1" xml:space="preserve">4</text>
    </g>
    <g fill="white" text-rendering="geometricPrecision" shape-rendering="geometricPrecision" transform="matrix(1,0,0,1,223,1949)" stroke="white">
      <circle r="15" clip-path="url(#clipPath2)" cx="70" cy="-1541.5" stroke="none"/>
    </g>
    <g text-rendering="geometricPrecision" stroke-miterlimit="1.45" stroke-width="2" shape-rendering="geometricPrecision" transform="matrix(1,0,0,1,223,1949)" stroke-linecap="butt">
      <circle fill="none" r="15" clip-path="url(#clipPath2)" cx="70" cy="-1541.5"/>
      <text x="66.2061" y="-1536.9648" clip-path="url(#clipPath2)" font-family="sans-serif" stroke="none" stroke-width="1" xml:space="preserve">5</text>
    </g>
    <g fill="silver" text-rendering="geometricPrecision" shape-rendering="geometricPrecision" transform="matrix(1,0,0,1,223,1949)" stroke="silver">
      <circle r="15" clip-path="url(#clipPath2)" cx="130" cy="-1541.5" stroke="none"/>
    </g>
    <g text-rendering="geometricPrecision" stroke-miterlimit="1.45" stroke-width="2" shape-rendering="geometricPrecision" transform="matrix(1,0,0,1,223,1949)" stroke-linecap="butt">
      <circle fill="none" r="15" clip-path="url(#clipPath2)" cx="130" cy="-1541.5"/>
      <text x="126.2061" y="-1536.9648" clip-path="url(#clipPath2)" font-family="sans-serif" stroke="none" stroke-width="1" xml:space="preserve">6</text>
    </g>
    <g fill="white" text-rendering="geometricPrecision" shape-rendering="geometricPrecision" transform="matrix(1,0,0,1,223,1949)" stroke="white">
      <circle r="15" clip-path="url(#clipPath2)" cx="-157" cy="-1871.666" stroke="none"/>
    </g>
    <g text-rendering="geometricPrecision" stroke-miterlimit="1.45" stroke-width="2" shape-rendering="geometricPrecision" transform="matrix(1,0,0,1,223,1949)" stroke-linecap="butt">
      <circle fill="none" r="15" clip-path="url(#clipPath2)" cx="-157" cy="-1871.666"/>
      <text x="-160.7939" y="-1867.1309" clip-path="url(#clipPath2)" font-family="sans-serif" stroke="none" stroke-width="1" xml:space="preserve">1</text>
    </g>
    <g fill="silver" text-rendering="geometricPrecision" shape-rendering="geometricPrecision" transform="matrix(1,0,0,1,223,1949)" stroke="silver">
      <circle r="15" clip-path="url(#clipPath2)" cx="-50" cy="-1829.166" stroke="none"/>
    </g>
    <g text-rendering="geometricPrecision" stroke-miterlimit="1.45" stroke-width="2" shape-rendering="geometricPrecision" transform="matrix(1,0,0,1,223,1949)" stroke-linecap="butt">
      <circle fill="none" r="15" clip-path="url(#clipPath2)" cx="-50" cy="-1829.166"/>
      <text x="-53.7939" y="-1824.6309" clip-path="url(#clipPath2)" font-family="sans-serif" stroke="none" stroke-width="1" xml:space="preserve">3</text>
    </g>
    <g fill="white" text-rendering="geometricPrecision" shape-rendering="geometricPrecision" transform="matrix(1,0,0,1,223,1949)" stroke="white">
      <ellipse rx="32" ry="15" clip-path="url(#clipPath2)" cx="229" cy="-1871.666" stroke="none"/>
    </g>
    <g text-rendering="geometricPrecision" stroke-miterlimit="1.45" stroke-width="2" shape-rendering="geometricPrecision" transform="matrix(1,0,0,1,223,1949)" stroke-linecap="butt">
      <ellipse rx="32" fill="none" ry="15" clip-path="url(#clipPath2)" cx="229" cy="-1871.666"/>
      <text x="211.3047" y="-1867.1309" clip-path="url(#clipPath2)" font-family="sans-serif" stroke="none" stroke-width="1" xml:space="preserve">future</text>
    </g>
    <g fill="white" text-rendering="geometricPrecision" shape-rendering="geometricPrecision" transform="matrix(1,0,0,1,223,1949)" stroke="white">
      <circle r="15" clip-path="url(#clipPath2)" cx="-97" cy="-1871.666" stroke="none"/>
    </g>
    <g text-rendering="geometricPrecision" stroke-miterlimit="1.45" stroke-width="2" shape-rendering="geometricPrecision" transform="matrix(1,0,0,1,223,1949)" stroke-linecap="butt">
      <circle fill="none" r="15" clip-path="url(#clipPath2)" cx="-97" cy="-1871.666"/>
      <text x="-100.7939" y="-1867.1309" clip-path="url(#clipPath2)" font-family="sans-serif" stroke="none" stroke-width="1" xml:space="preserve">2</text>
    </g>
    <g fill="white" text-rendering="geometricPrecision" shape-rendering="geometricPrecision" transform="matrix(1,0,0,1,223,1949)" stroke="white">
      <circle r="15" clip-path="url(#clipPath2)" cx="-97" cy="-1643.333" stroke="none"/>
    </g>
    <g text-rendering="geometricPrecision" stroke-miterlimit="1.45" stroke-width="2" shape-rendering="geometricPrecision" transform="matrix(1,0,0,1,223,1949)" stroke-linecap="butt">
      <circle fill="none" r="15" clip-path="url(#clipPath2)" cx="-97" cy="-1643.333"/>
      <text x="-100.7939" y="-1638.7979" clip-path="url(#clipPath2)" font-family="sans-serif" stroke="none" stroke-width="1" xml:space="preserve">2</text>
    </g>
    <g fill="silver" text-rendering="geometricPrecision" shape-rendering="geometricPrecision" transform="matrix(1,0,0,1,223,1949)" stroke="silver">
      <circle r="15" clip-path="url(#clipPath2)" cx="70" cy="-1643.333" stroke="none"/>
    </g>
    <g text-rendering="geometricPrecision" stroke-miterlimit="1.45" stroke-width="2" shape-rendering="geometricPrecision" transform="matrix(1,0,0,1,223,1949)" stroke-linecap="butt">
      <circle fill="none" r="15" clip-path="url(#clipPath2)" cx="70" cy="-1643.333"/>
      <text x="66.2061" y="-1638.7979" clip-path="url(#clipPath2)" font-family="sans-serif" stroke="none" stroke-width="1" xml:space="preserve">5</text>
    </g>
    <g fill="white" text-rendering="geometricPrecision" shape-rendering="geometricPrecision" transform="matrix(1,0,0,1,223,1949)" stroke="white">
      <circle r="15" clip-path="url(#clipPath2)" cx="-157" cy="-1643.333" stroke="none"/>
    </g>
    <g text-rendering="geometricPrecision" stroke-miterlimit="1.45" stroke-width="2" shape-rendering="geometricPrecision" transform="matrix(1,0,0,1,223,1949)" stroke-linecap="butt">
      <circle fill="none" r="15" clip-path="url(#clipPath2)" cx="-157" cy="-1643.333"/>
      <text x="-160.7939" y="-1638.7979" clip-path="url(#clipPath2)" font-family="sans-serif" stroke="none" stroke-width="1" xml:space="preserve">1</text>
    </g>
    <g fill="white" text-rendering="geometricPrecision" shape-rendering="geometricPrecision" transform="matrix(1,0,0,1,223,1949)" stroke="white">
      <ellipse rx="32" ry="15" clip-path="url(#clipPath2)" cx="229" cy="-1643.333" stroke="none"/>
    </g>
    <g text-rendering="geometricPrecision" stroke-miterlimit="1.45" stroke-width="2" shape-rendering="geometricPrecision" transform="matrix(1,0,0,1,223,1949)" stroke-linecap="butt">
      <ellipse rx="32" fill="none" ry="15" clip-path="url(#clipPath2)" cx="229" cy="-1643.333"/>
      <text x="211.3047" y="-1638.7979" clip-path="url(#clipPath2)" font-family="sans-serif" stroke="none" stroke-width="1" xml:space="preserve">future</text>
      <path fill="none" d="M-143.0594 -1755.1289 L-71.3756 -1726.6564" stroke-width="1" clip-path="url(#clipPath2)"/>
      <path d="M-63.9406 -1723.7031 L-73.2473 -1732.7798 L-72.3049 -1727.0255 L-76.9388 -1723.4861 Z" stroke-width="1" clip-path="url(#clipPath2)" stroke="none"/>
      <path fill="none" d="M-142 -1760.666 L-120 -1760.666" stroke-width="1" clip-path="url(#clipPath2)"/>
      <path d="M-112 -1760.666 L-124 -1765.666 L-121 -1760.666 L-124 -1755.666 Z" stroke-width="1" clip-path="url(#clipPath2)" stroke="none"/>
      <path fill="none" d="M-82 -1760.666 L189 -1760.666" stroke-width="1" clip-path="url(#clipPath2)"/>
      <path d="M197 -1760.666 L185 -1765.666 L188 -1760.666 L185 -1755.666 Z" stroke-width="1" clip-path="url(#clipPath2)" stroke="none"/>
      <path fill="none" d="M-35 -1718.166 L-13 -1718.166" stroke-width="1" clip-path="url(#clipPath2)"/>
      <path d="M-5 -1718.166 L-17 -1723.166 L-14 -1718.166 L-17 -1713.166 Z" stroke-width="1" clip-path="url(#clipPath2)" stroke="none"/>
      <path fill="none" d="M-143.0594 -1535.9629 L-71.3756 -1507.4904" stroke-width="1" clip-path="url(#clipPath2)"/>
      <path d="M-63.9406 -1504.5371 L-73.2473 -1513.6138 L-72.3049 -1507.8595 L-76.9388 -1504.3201 Z" stroke-width="1" clip-path="url(#clipPath2)" stroke="none"/>
      <path fill="none" d="M-142 -1541.5 L-120 -1541.5" stroke-width="1" clip-path="url(#clipPath2)"/>
      <path d="M-112 -1541.5 L-124 -1546.5 L-121 -1541.5 L-124 -1536.5 Z" stroke-width="1" clip-path="url(#clipPath2)" stroke="none"/>
      <path fill="none" d="M-35 -1499 L-13 -1499" stroke-width="1" clip-path="url(#clipPath2)"/>
      <path d="M-5 -1499 L-17 -1504 L-14 -1499 L-17 -1494 Z" stroke-width="1" clip-path="url(#clipPath2)" stroke="none"/>
      <path fill="none" d="M-82 -1541.5 L47 -1541.5" stroke-width="1" clip-path="url(#clipPath2)"/>
      <path d="M55 -1541.5 L43 -1546.5 L46 -1541.5 L43 -1536.5 Z" stroke-width="1" clip-path="url(#clipPath2)" stroke="none"/>
      <path fill="none" d="M85 -1541.5 L107 -1541.5" stroke-width="1" clip-path="url(#clipPath2)"/>
      <path d="M115 -1541.5 L103 -1546.5 L106 -1541.5 L103 -1536.5 Z" stroke-width="1" clip-path="url(#clipPath2)" stroke="none"/>
      <path fill="none" d="M145 -1541.5 L189 -1541.5" stroke-width="1" clip-path="url(#clipPath2)"/>
      <path d="M197 -1541.5 L185 -1546.5 L188 -1541.5 L185 -1536.5 Z" stroke-width="1" clip-path="url(#clipPath2)" stroke="none"/>
      <path fill="none" d="M-143.0594 -1866.1289 L-71.3756 -1837.6564" stroke-width="1" clip-path="url(#clipPath2)"/>
      <path d="M-63.9406 -1834.7031 L-73.2473 -1843.7798 L-72.3049 -1838.0255 L-76.9388 -1834.4861 Z" stroke-width="1" clip-path="url(#clipPath2)" stroke="none"/>
      <text x="-151.3547" y="-1842.3409" clip-path="url(#clipPath2)" font-family="sans-serif" stroke="none" stroke-width="1" xml:space="preserve">fork!</text>
      <path fill="none" d="M-142 -1871.666 L-120 -1871.666" stroke-width="1" clip-path="url(#clipPath2)"/>
      <path d="M-112 -1871.666 L-124 -1876.666 L-121 -1871.666 L-124 -1866.666 Z" stroke-width="1" clip-path="url(#clipPath2)" stroke="none"/>
      <path fill="none" d="M-82 -1871.666 L189 -1871.666" stroke-width="1" clip-path="url(#clipPath2)"/>
      <path d="M197 -1871.666 L185 -1876.666 L188 -1871.666 L185 -1866.666 Z" stroke-width="1" clip-path="url(#clipPath2)" stroke="none"/>
      <path fill="none" d="M-82 -1643.333 L47 -1643.333" stroke-width="1" clip-path="url(#clipPath2)"/>
      <path d="M55 -1643.333 L43 -1648.333 L46 -1643.333 L43 -1638.333 Z" stroke-width="1" clip-path="url(#clipPath2)" stroke="none"/>
      <text x="-47.8594" y="-1651.8643" clip-path="url(#clipPath2)" font-family="sans-serif" stroke="none" stroke-width="1" xml:space="preserve">goes offline</text>
      <path fill="none" d="M-142 -1643.333 L-120 -1643.333" stroke-width="1" clip-path="url(#clipPath2)"/>
      <path d="M-112 -1643.333 L-124 -1648.333 L-121 -1643.333 L-124 -1638.333 Z" stroke-width="1" clip-path="url(#clipPath2)" stroke="none"/>
      <path fill="none" d="M85 -1643.333 L189 -1643.333" stroke-width="1" clip-path="url(#clipPath2)"/>
      <path d="M197 -1643.333 L185 -1648.333 L188 -1643.333 L185 -1638.333 Z" stroke-width="1" clip-path="url(#clipPath2)" stroke="none"/>
      <text x="105.5889" y="-1627.7314" clip-path="url(#clipPath2)" font-family="sans-serif" stroke="none" stroke-width="1" xml:space="preserve">back online,</text>
      <text x="112.7256" y="-1613.5986" clip-path="url(#clipPath2)" font-family="sans-serif" stroke="none" stroke-width="1" xml:space="preserve">pushes 5,</text>
      <text x="109.5059" y="-1599.4658" clip-path="url(#clipPath2)" font-family="sans-serif" stroke="none" stroke-width="1" xml:space="preserve">pulls 3 &amp; 4</text>
    </g>
  </g>
</svg>
