<?xml version="1.0" encoding="UTF-8"?><svg xmlns="http://www.w3.org/2000/svg" xmlns:xlink="http://www.w3.org/1999/xlink" fill-opacity="1" color-rendering="auto" color-interpolation="auto" text-rendering="auto" stroke="black" stroke-linecap="square" width="289" stroke-miterlimit="10" shape-rendering="auto" stroke-opacity="1" fill="black" stroke-dasharray="none" font-weight="normal" stroke-width="1" height="97" font-family="'Dialog'" font-style="normal" stroke-linejoin="miter" font-size="12px" stroke-dashoffset="0" image-rendering="auto">
  <!--Generated by ySVG 2.5-->
  <defs id="genericDefs"/>
  <g>
    <defs id="defs1">
      <clipPath clipPathUnits="userSpaceOnUse" id="clipPath1">
        <path d="M0 0 L289 0 L289 97 L0 97 L0 0 Z"/>
      </clipPath>
      <clipPath clipPathUnits="userSpaceOnUse" id="clipPath2">
        <path d="M193 -522 L482 -522 L482 -425 L193 -425 L193 -522 Z"/>
      </clipPath>
    </defs>
    <g fill="white" text-rendering="geometricPrecision" shape-rendering="geometricPrecision" transform="translate(-193,522)" stroke="white">
      <rect x="193" width="289" height="97" y="-522" clip-path="url(#clipPath2)" stroke="none"/>
    </g>
    <g fill="white" text-rendering="geometricPrecision" shape-rendering="geometricPrecision" transform="matrix(1,0,0,1,-193,522)" stroke="white">
      <circle r="15" clip-path="url(#clipPath2)" cx="218.5" cy="-450.668" stroke="none"/>
    </g>
    <g text-rendering="geometricPrecision" stroke-miterlimit="1.45" stroke-width="2" shape-rendering="geometricPrecision" transform="matrix(1,0,0,1,-193,522)" stroke-linecap="butt">
      <circle fill="none" r="15" clip-path="url(#clipPath2)" cx="218.5" cy="-450.668"/>
      <text x="210.5547" y="-446.1328" clip-path="url(#clipPath2)" font-family="sans-serif" stroke="none" stroke-width="1" xml:space="preserve">C0</text>
    </g>
    <g fill="white" text-rendering="geometricPrecision" shape-rendering="geometricPrecision" transform="matrix(1,0,0,1,-193,522)" stroke="white">
      <circle r="15" clip-path="url(#clipPath2)" cx="278.5" cy="-450.668" stroke="none"/>
    </g>
    <g text-rendering="geometricPrecision" stroke-miterlimit="1.45" stroke-width="2" shape-rendering="geometricPrecision" transform="matrix(1,0,0,1,-193,522)" stroke-linecap="butt">
      <circle fill="none" r="15" clip-path="url(#clipPath2)" cx="278.5" cy="-450.668"/>
      <text x="270.5547" y="-446.1328" clip-path="url(#clipPath2)" font-family="sans-serif" stroke="none" stroke-width="1" xml:space="preserve">C1</text>
    </g>
    <g fill="white" text-rendering="geometricPrecision" shape-rendering="geometricPrecision" transform="matrix(1,0,0,1,-193,522)" stroke="white">
      <circle r="15" clip-path="url(#clipPath2)" cx="338.5" cy="-450.668" stroke="none"/>
    </g>
    <g text-rendering="geometricPrecision" stroke-miterlimit="1.45" stroke-width="2" shape-rendering="geometricPrecision" transform="matrix(1,0,0,1,-193,522)" stroke-linecap="butt">
      <circle fill="none" r="15" clip-path="url(#clipPath2)" cx="338.5" cy="-450.668"/>
      <text x="330.5547" y="-446.1328" clip-path="url(#clipPath2)" font-family="sans-serif" stroke="none" stroke-width="1" xml:space="preserve">C2</text>
    </g>
    <g fill="white" text-rendering="geometricPrecision" shape-rendering="geometricPrecision" transform="matrix(1,0,0,1,-193,522)" stroke="white">
      <circle r="15" clip-path="url(#clipPath2)" cx="397.5" cy="-450.668" stroke="none"/>
    </g>
    <g text-rendering="geometricPrecision" stroke-miterlimit="1.45" stroke-width="2" shape-rendering="geometricPrecision" transform="matrix(1,0,0,1,-193,522)" stroke-linecap="butt">
      <circle fill="none" r="15" clip-path="url(#clipPath2)" cx="397.5" cy="-450.668"/>
      <text x="389.5547" y="-446.1328" clip-path="url(#clipPath2)" font-family="sans-serif" stroke="none" stroke-width="1" xml:space="preserve">C3</text>
    </g>
    <g fill="white" text-rendering="geometricPrecision" shape-rendering="geometricPrecision" transform="matrix(1,0,0,1,-193,522)" stroke="white">
      <circle r="15" clip-path="url(#clipPath2)" cx="456.5" cy="-450.668" stroke="none"/>
    </g>
    <g text-rendering="geometricPrecision" stroke-miterlimit="1.45" stroke-width="2" shape-rendering="geometricPrecision" transform="matrix(1,0,0,1,-193,522)" stroke-linecap="butt">
      <circle fill="none" r="15" clip-path="url(#clipPath2)" cx="456.5" cy="-450.668"/>
      <text x="448.5547" y="-446.1328" clip-path="url(#clipPath2)" font-family="sans-serif" stroke="none" stroke-width="1" xml:space="preserve">C5</text>
    </g>
    <g fill="white" text-rendering="geometricPrecision" shape-rendering="geometricPrecision" transform="matrix(1,0,0,1,-193,522)" stroke="white">
      <circle r="15" clip-path="url(#clipPath2)" cx="397.5" cy="-496.8418" stroke="none"/>
    </g>
    <g text-rendering="geometricPrecision" stroke-miterlimit="1.45" stroke-width="2" shape-rendering="geometricPrecision" transform="matrix(1,0,0,1,-193,522)" stroke-linecap="butt">
      <circle fill="none" r="15" clip-path="url(#clipPath2)" cx="397.5" cy="-496.8418"/>
      <text x="389.5547" y="-492.3067" clip-path="url(#clipPath2)" font-family="sans-serif" stroke="none" stroke-width="1" xml:space="preserve">C4</text>
      <path fill="none" d="M233.5 -450.668 L255.5 -450.668" stroke-width="1" clip-path="url(#clipPath2)"/>
      <path d="M263.5 -450.668 L251.5 -455.668 L254.5 -450.668 L251.5 -445.668 Z" stroke-width="1" clip-path="url(#clipPath2)" stroke="none"/>
      <path fill="none" d="M293.5 -450.668 L315.5 -450.668" stroke-width="1" clip-path="url(#clipPath2)"/>
      <path d="M323.5 -450.668 L311.5 -455.668 L314.5 -450.668 L311.5 -445.668 Z" stroke-width="1" clip-path="url(#clipPath2)" stroke="none"/>
      <path fill="none" d="M353.5 -450.668 L374.5 -450.668" stroke-width="1" clip-path="url(#clipPath2)"/>
      <path d="M382.5 -450.668 L370.5 -455.668 L373.5 -450.668 L370.5 -445.668 Z" stroke-width="1" clip-path="url(#clipPath2)" stroke="none"/>
      <path fill="none" d="M412.5 -450.668 L433.5 -450.668" stroke-width="1" clip-path="url(#clipPath2)"/>
      <path d="M441.5 -450.668 L429.5 -455.668 L432.5 -450.668 L429.5 -445.668 Z" stroke-width="1" clip-path="url(#clipPath2)" stroke="none"/>
      <path fill="none" d="M350.3126 -459.9126 L379.3874 -482.6667" stroke-width="1" clip-path="url(#clipPath2)"/>
      <path d="M385.6874 -487.5972 L373.1558 -484.139 L378.5999 -482.0504 L379.3189 -476.264 Z" stroke-width="1" clip-path="url(#clipPath2)" stroke="none"/>
      <path fill="none" d="M409.3126 -487.5972 L438.3874 -464.843" stroke-width="1" clip-path="url(#clipPath2)"/>
      <path d="M444.6874 -459.9126 L438.3189 -471.2458 L437.5999 -465.4594 L432.1559 -463.3708 Z" stroke-width="1" clip-path="url(#clipPath2)" stroke="none"/>
    </g>
  </g>
</svg>
