<?xml version="1.0" encoding="UTF-8"?><svg xmlns="http://www.w3.org/2000/svg" xmlns:xlink="http://www.w3.org/1999/xlink" fill-opacity="1" color-rendering="auto" color-interpolation="auto" text-rendering="auto" stroke="black" stroke-linecap="square" width="326" stroke-miterlimit="10" shape-rendering="auto" stroke-opacity="1" fill="black" stroke-dasharray="none" font-weight="normal" stroke-width="1" height="157" font-family="'Dialog'" font-style="normal" stroke-linejoin="miter" font-size="12px" stroke-dashoffset="0" image-rendering="auto">
  <!--Generated by ySVG 2.5-->
  <defs id="genericDefs"/>
  <g>
    <defs id="defs1">
      <clipPath clipPathUnits="userSpaceOnUse" id="clipPath1">
        <path d="M0 0 L326 0 L326 157 L0 157 L0 0 Z"/>
      </clipPath>
      <clipPath clipPathUnits="userSpaceOnUse" id="clipPath2">
        <path d="M180 -552 L506 -552 L506 -395 L180 -395 L180 -552 Z"/>
      </clipPath>
    </defs>
    <g fill="white" text-rendering="geometricPrecision" shape-rendering="geometricPrecision" transform="translate(-180,552)" stroke="white">
      <rect x="180" width="326" height="157" y="-552" clip-path="url(#clipPath2)" stroke="none"/>
    </g>
    <g fill="rgb(198,226,255)" text-rendering="geometricPrecision" shape-rendering="geometricPrecision" transform="matrix(1,0,0,1,-180,552)" stroke="rgb(198,226,255)">
      <rect x="190.2647" width="304.8657" height="46" y="-473.8418" clip-path="url(#clipPath2)" stroke="none"/>
    </g>
    <g stroke-linecap="butt" transform="matrix(1,0,0,1,-180,552)" fill="rgb(124,165,204)" text-rendering="geometricPrecision" shape-rendering="geometricPrecision" stroke="rgb(124,165,204)" stroke-miterlimit="1.45">
      <rect fill="none" x="190.2647" width="304.8657" height="46" y="-473.8418" clip-path="url(#clipPath2)"/>
      <text x="328.3245" y="-410.2403" clip-path="url(#clipPath2)" fill="black" font-family="sans-serif" stroke="none" xml:space="preserve">main</text>
    </g>
    <g fill="rgb(154,204,252)" text-rendering="geometricPrecision" shape-rendering="geometricPrecision" transform="matrix(1,0,0,1,-180,552)" stroke="rgb(154,204,252)">
      <rect x="337.1353" width="157.9952" height="46" y="-519.8418" clip-path="url(#clipPath2)" stroke="none"/>
    </g>
    <g stroke-linecap="butt" transform="matrix(1,0,0,1,-180,552)" fill="rgb(124,165,204)" text-rendering="geometricPrecision" shape-rendering="geometricPrecision" stroke="rgb(124,165,204)" stroke-miterlimit="1.45">
      <rect fill="none" x="337.1353" width="157.9952" height="46" y="-519.8418" clip-path="url(#clipPath2)"/>
      <text x="395.5049" y="-528.3731" clip-path="url(#clipPath2)" fill="black" font-family="sans-serif" stroke="none" xml:space="preserve">feature</text>
    </g>
    <g fill="white" text-rendering="geometricPrecision" shape-rendering="geometricPrecision" transform="matrix(1,0,0,1,-180,552)" stroke="white">
      <circle r="15" clip-path="url(#clipPath2)" cx="218.5" cy="-450.668" stroke="none"/>
    </g>
    <g text-rendering="geometricPrecision" stroke-miterlimit="1.45" stroke-width="2" shape-rendering="geometricPrecision" transform="matrix(1,0,0,1,-180,552)" stroke-linecap="butt">
      <circle fill="none" r="15" clip-path="url(#clipPath2)" cx="218.5" cy="-450.668"/>
      <text x="210.5547" y="-446.1328" clip-path="url(#clipPath2)" font-family="sans-serif" stroke="none" stroke-width="1" xml:space="preserve">C0</text>
    </g>
    <g fill="white" text-rendering="geometricPrecision" shape-rendering="geometricPrecision" transform="matrix(1,0,0,1,-180,552)" stroke="white">
      <circle r="15" clip-path="url(#clipPath2)" cx="280.0721" cy="-450.668" stroke="none"/>
    </g>
    <g text-rendering="geometricPrecision" stroke-miterlimit="1.45" stroke-width="2" shape-rendering="geometricPrecision" transform="matrix(1,0,0,1,-180,552)" stroke-linecap="butt">
      <circle fill="none" r="15" clip-path="url(#clipPath2)" cx="280.0721" cy="-450.668"/>
      <text x="272.1268" y="-446.1328" clip-path="url(#clipPath2)" font-family="sans-serif" stroke="none" stroke-width="1" xml:space="preserve">C1</text>
    </g>
    <g fill="white" text-rendering="geometricPrecision" shape-rendering="geometricPrecision" transform="matrix(1,0,0,1,-180,552)" stroke="white">
      <circle r="15" clip-path="url(#clipPath2)" cx="341.6441" cy="-450.668" stroke="none"/>
    </g>
    <g text-rendering="geometricPrecision" stroke-miterlimit="1.45" stroke-width="2" shape-rendering="geometricPrecision" transform="matrix(1,0,0,1,-180,552)" stroke-linecap="butt">
      <circle fill="none" r="15" clip-path="url(#clipPath2)" cx="341.6441" cy="-450.668"/>
      <text x="333.6988" y="-446.1328" clip-path="url(#clipPath2)" font-family="sans-serif" stroke="none" stroke-width="1" xml:space="preserve">C2</text>
    </g>
    <g fill="white" text-rendering="geometricPrecision" shape-rendering="geometricPrecision" transform="matrix(1,0,0,1,-180,552)" stroke="white">
      <circle r="15" clip-path="url(#clipPath2)" cx="464.7883" cy="-450.668" stroke="none"/>
    </g>
    <g text-rendering="geometricPrecision" stroke-miterlimit="1.45" stroke-width="2" shape-rendering="geometricPrecision" transform="matrix(1,0,0,1,-180,552)" stroke-linecap="butt">
      <circle fill="none" r="15" clip-path="url(#clipPath2)" cx="464.7883" cy="-450.668"/>
      <text x="456.843" y="-446.1328" clip-path="url(#clipPath2)" font-family="sans-serif" stroke="none" stroke-width="1" xml:space="preserve">C6</text>
    </g>
    <g fill="white" text-rendering="geometricPrecision" shape-rendering="geometricPrecision" transform="matrix(1,0,0,1,-180,552)" stroke="white">
      <circle r="15" clip-path="url(#clipPath2)" cx="403.2162" cy="-450.668" stroke="none"/>
    </g>
    <g text-rendering="geometricPrecision" stroke-miterlimit="1.45" stroke-width="2" shape-rendering="geometricPrecision" transform="matrix(1,0,0,1,-180,552)" stroke-linecap="butt">
      <circle fill="none" r="15" clip-path="url(#clipPath2)" cx="403.2162" cy="-450.668"/>
      <text x="395.2709" y="-446.1328" clip-path="url(#clipPath2)" font-family="sans-serif" stroke="none" stroke-width="1" xml:space="preserve">C4</text>
    </g>
    <g fill="white" text-rendering="geometricPrecision" shape-rendering="geometricPrecision" transform="matrix(1,0,0,1,-180,552)" stroke="white">
      <circle r="15" clip-path="url(#clipPath2)" cx="372.4302" cy="-496.8418" stroke="none"/>
    </g>
    <g text-rendering="geometricPrecision" stroke-miterlimit="1.45" stroke-width="2" shape-rendering="geometricPrecision" transform="matrix(1,0,0,1,-180,552)" stroke-linecap="butt">
      <circle fill="none" r="15" clip-path="url(#clipPath2)" cx="372.4302" cy="-496.8418"/>
      <text x="364.4849" y="-492.3067" clip-path="url(#clipPath2)" font-family="sans-serif" stroke="none" stroke-width="1" xml:space="preserve">C3</text>
    </g>
    <g fill="white" text-rendering="geometricPrecision" shape-rendering="geometricPrecision" transform="matrix(1,0,0,1,-180,552)" stroke="white">
      <circle r="15" clip-path="url(#clipPath2)" cx="434.0022" cy="-496.8418" stroke="none"/>
    </g>
    <g text-rendering="geometricPrecision" stroke-miterlimit="1.45" stroke-width="2" shape-rendering="geometricPrecision" transform="matrix(1,0,0,1,-180,552)" stroke-linecap="butt">
      <circle fill="none" r="15" clip-path="url(#clipPath2)" cx="434.0022" cy="-496.8418"/>
      <text x="426.0569" y="-492.3067" clip-path="url(#clipPath2)" font-family="sans-serif" stroke="none" stroke-width="1" xml:space="preserve">C5</text>
      <path fill="none" d="M233.5 -450.668 L257.0721 -450.668" stroke-width="1" clip-path="url(#clipPath2)"/>
      <path d="M265.0721 -450.668 L253.0721 -455.668 L256.0721 -450.668 L253.0721 -445.668 Z" stroke-width="1" clip-path="url(#clipPath2)" stroke="none"/>
      <path fill="none" d="M295.0721 -450.668 L318.6441 -450.668" stroke-width="1" clip-path="url(#clipPath2)"/>
      <path d="M326.6441 -450.668 L314.6441 -455.668 L317.6441 -450.668 L314.6441 -445.668 Z" stroke-width="1" clip-path="url(#clipPath2)" stroke="none"/>
      <path fill="none" d="M356.6441 -450.668 L380.2162 -450.668" stroke-width="1" clip-path="url(#clipPath2)"/>
      <path d="M388.2162 -450.668 L376.2162 -455.668 L379.2162 -450.668 L376.2162 -445.668 Z" stroke-width="1" clip-path="url(#clipPath2)" stroke="none"/>
      <path fill="none" d="M418.2162 -450.668 L441.7883 -450.668" stroke-width="1" clip-path="url(#clipPath2)"/>
      <path d="M449.7883 -450.668 L437.7883 -455.668 L440.7883 -450.668 L437.7883 -445.668 Z" stroke-width="1" clip-path="url(#clipPath2)" stroke="none"/>
      <path fill="none" d="M349.9653 -463.1483 L359.6711 -477.7054" stroke-width="1" clip-path="url(#clipPath2)"/>
      <path d="M364.109 -484.3615 L353.292 -477.151 L359.1163 -476.8734 L361.6122 -471.6036 Z" stroke-width="1" clip-path="url(#clipPath2)" stroke="none"/>
      <path fill="none" d="M387.4302 -496.8418 L411.0022 -496.8418" stroke-width="1" clip-path="url(#clipPath2)"/>
      <path d="M419.0022 -496.8418 L407.0022 -501.8418 L410.0022 -496.8418 L407.0022 -491.8418 Z" stroke-width="1" clip-path="url(#clipPath2)" stroke="none"/>
    </g>
  </g>
</svg>
